<svg id="Capa_1" enable-background="new 0 0 510 510" fill="#0080ff" height="48" viewBox="0 0 510 510" width="48" xmlns="http://www.w3.org/2000/svg"><path d="m62.5 336.24h100.47v-41.7c0-1.979.178-4.257 1.01-6.2 42.446-108.698 26.461-68.116 55.44-140.91 12.777-32.128 58.358-32.138 71.16 0 27.317 68.648 15.645 38.996 55.17 140.24.84 1.87 1.31 3.95 1.31 6.13v42.44h100.44c8.284 0 15-6.716 15-15v-232.08h-415v232.08c0 8.285 6.716 15 15 15z"/><path d="m369.01 0h-306.51c-8.284 0-15 6.716-15 15v44.16h321.51z"/><path d="m399.01 0v59.16h63.49v-44.16c0-8.284-6.716-15-15-15z"/><path d="m207.97 510h32.03v-201.2h-47.03v186.2c0 8.284 6.716 15 15 15z"/><path d="m199.91 278.79h110.17l-21.44-54.92h-67.28z"/><path d="m270 510h32.06c8.284 0 15-6.716 15-15v-186.2h-47.06z"/><path d="m262.7 158.52c-2.768-6.971-12.617-6.998-15.41 0l-14.07 35.35h.01 43.54z"/></svg>